<svg width="294" height="93" viewBox="0 0 294 93" fill="none" xmlns="http://www.w3.org/2000/svg">
<path fill-rule="evenodd" clip-rule="evenodd" d="M125.578 51.4138C125.855 49.8175 126 48.1756 126 46.5C126 45.1663 125.908 43.8539 125.731 42.569H155.483V51.4138H125.578ZM125.578 51.4138C123.249 64.8123 111.564 75 97.5 75C81.7599 75 69 62.2401 69 46.5C69 30.7599 81.7599 18 97.5 18C111.906 18 123.816 28.6891 125.731 42.569H93.5689V51.4138H125.578Z" fill="url(#paint0_linear_1_13)"/>
<path d="M5.032 74V21.756H13.32L33.892 53.798H29.674L50.172 21.756H58.534V74H46.916V41.366L48.988 41.884L35.594 62.752H27.898L14.578 41.884L16.576 41.366V74H5.032Z" fill="white"/>
<path d="M173.912 52.466V43.882H184.938C187.257 43.882 189.033 43.29 190.266 42.106C191.549 40.922 192.19 39.3187 192.19 37.296C192.19 35.4213 191.573 33.8673 190.34 32.634C189.107 31.4007 187.331 30.784 185.012 30.784H173.912V21.756H186.344C189.797 21.756 192.831 22.422 195.446 23.754C198.061 25.0367 200.108 26.8373 201.588 29.156C203.068 31.4747 203.808 34.1387 203.808 37.148C203.808 40.2067 203.068 42.8953 201.588 45.214C200.108 47.4833 198.036 49.2593 195.372 50.542C192.708 51.8247 189.575 52.466 185.974 52.466H173.912ZM165.032 74V21.756H176.65V74H165.032ZM193.448 74L177.168 51.504L187.824 48.618L207.212 74H193.448ZM225.941 74.814C221.649 74.814 217.949 74.1233 214.841 72.742C211.782 71.3113 208.97 69.1653 206.405 66.304L213.953 58.83C215.63 60.754 217.48 62.2587 219.503 63.344C221.575 64.38 223.968 64.898 226.681 64.898C229.148 64.898 231.047 64.454 232.379 63.566C233.76 62.678 234.451 61.4447 234.451 59.866C234.451 58.4353 234.007 57.276 233.119 56.388C232.231 55.5 231.047 54.7353 229.567 54.094C228.136 53.4527 226.533 52.836 224.757 52.244C223.03 51.652 221.304 50.986 219.577 50.246C217.85 49.4567 216.247 48.4947 214.767 47.36C213.336 46.176 212.177 44.7207 211.289 42.994C210.401 41.218 209.957 38.998 209.957 36.334C209.957 33.1273 210.722 30.3647 212.251 28.046C213.83 25.7273 216 23.976 218.763 22.792C221.526 21.5587 224.708 20.942 228.309 20.942C231.96 20.942 235.29 21.5833 238.299 22.866C241.358 24.1487 243.874 25.9 245.847 28.12L238.299 35.594C236.72 33.966 235.117 32.7573 233.489 31.968C231.91 31.1787 230.11 30.784 228.087 30.784C226.064 30.784 224.461 31.1787 223.277 31.968C222.093 32.708 221.501 33.7933 221.501 35.224C221.501 36.556 221.945 37.6413 222.833 38.48C223.721 39.2693 224.88 39.96 226.311 40.552C227.791 41.144 229.394 41.736 231.121 42.328C232.897 42.92 234.648 43.6107 236.375 44.4C238.102 45.1893 239.68 46.2007 241.111 47.434C242.591 48.618 243.775 50.1473 244.663 52.022C245.551 53.8473 245.995 56.1167 245.995 58.83C245.995 63.8127 244.219 67.7347 240.667 70.596C237.115 73.408 232.206 74.814 225.941 74.814ZM252.656 74V21.756H264.274V74H252.656ZM261.536 74V63.936H290.174V74H261.536ZM261.536 52.17V42.476H287.584V52.17H261.536ZM261.536 31.746V21.756H289.804V31.746H261.536Z" fill="white"/>
<defs>
<linearGradient id="paint0_linear_1_13" x1="69" y1="46.5" x2="155.483" y2="46.5" gradientUnits="userSpaceOnUse">
<stop stop-color="#F78CA0"/>
<stop offset="0.19" stop-color="#F9748F"/>
<stop offset="0.6" stop-color="#FD868C"/>
</linearGradient>
</defs>
</svg>
